<svg xmlns="http://www.w3.org/2000/svg" viewBox="0 0 760 450" font-family="Helvetica, Arial, sans-serif" role="img" aria-labelledby="t">
<title id="t">One simulation compiled for the CPU and GPU</title>
<defs><marker id="a" viewBox="0 0 10 10" refX="9" refY="5" markerWidth="7" markerHeight="7" orient="auto-start-reverse"><path d="M0 0L10 5L0 10z" fill="#66675e"/></marker><marker id="s" viewBox="0 0 10 10" refX="9" refY="5" markerWidth="7" markerHeight="7" orient="auto-start-reverse"><path d="M0 0L10 5L0 10z" fill="#b53b13"/></marker></defs>
<rect width="760" height="450" fill="#ede5d5"/>
<rect x="205" y="20" width="350" height="128" rx="8" fill="#263d31" stroke="#b9ad99" stroke-width="1.6"/><text x="219" y="45" font-size="24" fill="#ede5d5" text-anchor="start" font-weight="bold">One simulation</text><text x="219" y="80" font-size="20" fill="#d9d2c3" text-anchor="start" font-weight="normal">Fixed-array game state</text><text x="219" y="104" font-size="20" fill="#d9d2c3" text-anchor="start" font-weight="normal">Shared rule functions</text>
<path d="M380 148 L380 182 L185 182 L185 223" fill="none" stroke="#66675e" stroke-width="1.8" stroke-linejoin="round" marker-end="url(#a)"/>
<path d="M380 148 L380 182 L575 182 L575 223" fill="none" stroke="#66675e" stroke-width="1.8" stroke-linejoin="round" marker-end="url(#a)"/>
<rect x="20" y="225" width="330" height="156" rx="8" fill="#f6f1e7" stroke="#b9ad99" stroke-width="1.6"/><text x="34" y="250" font-size="24" fill="#20251f" text-anchor="start" font-weight="bold">CPU build</text><text x="34" y="285" font-size="20" fill="#66675e" text-anchor="start" font-weight="normal">Turn text and replies</text><text x="34" y="311" font-size="20" fill="#66675e" text-anchor="start" font-weight="normal">Official-engine comparison</text>
<rect x="410" y="225" width="330" height="156" rx="8" fill="#f6f1e7" stroke="#b53b13" stroke-width="1.6"/><text x="424" y="250" font-size="24" fill="#20251f" text-anchor="start" font-weight="bold">CUDA build</text><text x="424" y="285" font-size="20" fill="#66675e" text-anchor="start" font-weight="normal">Batched game state</text><text x="424" y="311" font-size="20" fill="#66675e" text-anchor="start" font-weight="normal">Policy input tensors</text>
<text x="380" y="425" font-size="22" fill="#66675e" text-anchor="middle" font-weight="normal">Shared rules, separate wrappers to check</text>
</svg>
