<svg xmlns="http://www.w3.org/2000/svg" viewBox="0 0 760 396" font-family="Helvetica, Arial, sans-serif" role="img" aria-labelledby="t d">
<title id="t">Each change against the first bot</title>
<desc id="d">Roles, first try: 12 changed games gained, 26 dropped, worse; No kamikazes: 10 changed games gained, 25 dropped, worse; No kamikazes, narrower champion berth: 0 changed games gained, 0 dropped, undecided; Narrower champion berth: 3 changed games gained, 4 dropped, undecided; Champion splits at length 10: 39 changed games gained, 4 dropped, better; Splits, but children work instead: 35 changed games gained, 8 dropped, better; Splits, and ignores its own echo: 39 changed games gained, 5 dropped, better.</desc>
<rect width="760" height="396" fill="#ede5d5"/>
<line x1="290" x2="290" y1="32" y2="338" stroke="#d9d0bf"/>
<text x="290" y="356" font-size="12" fill="#66675e" text-anchor="middle">0%</text>
<line x1="367.5" x2="367.5" y1="32" y2="338" stroke="#d9d0bf"/>
<text x="367.5" y="356" font-size="12" fill="#66675e" text-anchor="middle">25%</text>
<line x1="445.0" x2="445.0" y1="32" y2="338" stroke="#8a8274" stroke-dasharray="4 3"/>
<text x="445.0" y="356" font-size="12" fill="#66675e" text-anchor="middle">50%</text>
<line x1="522.5" x2="522.5" y1="32" y2="338" stroke="#d9d0bf"/>
<text x="522.5" y="356" font-size="12" fill="#66675e" text-anchor="middle">75%</text>
<line x1="600" x2="600" y1="32" y2="338" stroke="#d9d0bf"/>
<text x="600" y="356" font-size="12" fill="#66675e" text-anchor="middle">100%</text>
<text x="445.0" y="26" font-size="12" fill="#66675e" text-anchor="middle">share of changed games gained</text>
<text x="278" y="59" font-size="13" fill="#20251f" text-anchor="end">Roles, first try</text>
<line x1="445.0" x2="387.9" y1="54" y2="54" stroke="#8a8274" stroke-width="3"/>
<circle cx="387.9" cy="54" r="6" fill="#8a8274" stroke="#ede5d5" stroke-width="2"/>
<text x="614" y="59" font-size="12.5" fill="#20251f">12–26 of 132, worse</text>
<text x="278" y="103" font-size="13" fill="#20251f" text-anchor="end">No kamikazes</text>
<line x1="445.0" x2="378.6" y1="98" y2="98" stroke="#8a8274" stroke-width="3"/>
<circle cx="378.6" cy="98" r="6" fill="#8a8274" stroke="#ede5d5" stroke-width="2"/>
<text x="614" y="103" font-size="12.5" fill="#20251f">10–25 of 132, worse</text>
<text x="278" y="147" font-size="13" fill="#20251f" text-anchor="end">No kamikazes, narrower champion berth</text>
<line x1="445.0" x2="445.0" y1="142" y2="142" stroke="#b9ad99" stroke-width="3"/>
<circle cx="445.0" cy="142" r="6" fill="#b9ad99" stroke="#ede5d5" stroke-width="2"/>
<text x="614" y="147" font-size="12.5" fill="#20251f">0–0 of 132, undecided</text>
<text x="278" y="191" font-size="13" fill="#20251f" text-anchor="end">Narrower champion berth</text>
<line x1="445.0" x2="422.9" y1="186" y2="186" stroke="#b9ad99" stroke-width="3"/>
<circle cx="422.9" cy="186" r="6" fill="#b9ad99" stroke="#ede5d5" stroke-width="2"/>
<text x="614" y="191" font-size="12.5" fill="#20251f">3–4 of 132, undecided</text>
<text x="278" y="235" font-size="13" fill="#20251f" text-anchor="end">Champion splits at length 10</text>
<line x1="445.0" x2="571.2" y1="230" y2="230" stroke="#b53b13" stroke-width="3"/>
<circle cx="571.2" cy="230" r="6" fill="#b53b13" stroke="#ede5d5" stroke-width="2"/>
<text x="614" y="235" font-size="12.5" fill="#20251f">39–4 of 132, better</text>
<text x="278" y="279" font-size="13" fill="#20251f" text-anchor="end">Splits, but children work instead</text>
<line x1="445.0" x2="542.3" y1="274" y2="274" stroke="#b53b13" stroke-width="3"/>
<circle cx="542.3" cy="274" r="6" fill="#b53b13" stroke="#ede5d5" stroke-width="2"/>
<text x="614" y="279" font-size="12.5" fill="#20251f">35–8 of 132, better</text>
<text x="278" y="323" font-size="13" fill="#20251f" text-anchor="end">Splits, and ignores its own echo</text>
<line x1="445.0" x2="564.8" y1="318" y2="318" stroke="#b53b13" stroke-width="3"/>
<circle cx="564.8" cy="318" r="6" fill="#b53b13" stroke="#ede5d5" stroke-width="2"/>
<text x="614" y="323" font-size="12.5" fill="#20251f">39–5 of 132, better</text>
</svg>
