<svg xmlns="http://www.w3.org/2000/svg" viewBox="0 0 1010 140" font-family="Helvetica, Arial, sans-serif" role="img" aria-labelledby="t">
<title id="t">The tactics bot&#x27;s sonar message</title>
<defs><marker id="a" viewBox="0 0 10 10" refX="9" refY="5" markerWidth="7" markerHeight="7" orient="auto-start-reverse"><path d="M0 0L10 5L0 10z" fill="#66675e"/></marker><marker id="s" viewBox="0 0 10 10" refX="9" refY="5" markerWidth="7" markerHeight="7" orient="auto-start-reverse"><path d="M0 0L10 5L0 10z" fill="#b53b13"/></marker></defs>
<rect width="1010" height="140" fill="#ede5d5"/>
<text x="20" y="30" font-size="16" fill="#20251f" text-anchor="start" font-weight="bold">The tactics bot&#x27;s sonar message</text>
<rect x="20.0" y="50" width="239.5" height="52" rx="5" fill="#263d31"/>
<text x="141.25" y="74" font-size="13.5" fill="#ede5d5" text-anchor="middle" font-weight="bold">team tag LO</text>
<text x="141.25" y="92" font-size="11.5" fill="#e9e1d0" text-anchor="middle" font-weight="normal">16 bits</text>
<text x="22" y="122" font-size="11" fill="#66675e" text-anchor="start" font-weight="normal">63</text>
<rect x="262.5" y="50" width="239.5" height="52" rx="5" fill="#3f6e8c"/>
<text x="383.75" y="74" font-size="13.5" fill="#ede5d5" text-anchor="middle" font-weight="bold">sender ID</text>
<text x="383.75" y="92" font-size="11.5" fill="#e9e1d0" text-anchor="middle" font-weight="normal">16 bits</text>
<text x="264.5" y="122" font-size="11" fill="#66675e" text-anchor="start" font-weight="normal">47</text>
<rect x="505.0" y="50" width="57.6" height="52" rx="5" fill="#7a4f8a"/>
<text x="535.3125" y="74" font-size="13.5" fill="#ede5d5" text-anchor="middle" font-weight="bold">role</text>
<text x="535.3125" y="92" font-size="11.5" fill="#e9e1d0" text-anchor="middle" font-weight="normal">4 bits</text>
<text x="507.0" y="122" font-size="11" fill="#66675e" text-anchor="start" font-weight="normal">31</text>
<rect x="565.6" y="50" width="178.9" height="52" rx="5" fill="#a8801a"/>
<text x="656.5625" y="74" font-size="13.5" fill="#ede5d5" text-anchor="middle" font-weight="bold">length</text>
<text x="656.5625" y="92" font-size="11.5" fill="#e9e1d0" text-anchor="middle" font-weight="normal">12 bits</text>
<text x="567.625" y="122" font-size="11" fill="#66675e" text-anchor="start" font-weight="normal">27</text>
<rect x="747.5" y="50" width="118.2" height="52" rx="5" fill="#b53b13"/>
<text x="808.125" y="74" font-size="13.5" fill="#ede5d5" text-anchor="middle" font-weight="bold">head x</text>
<text x="808.125" y="92" font-size="11.5" fill="#e9e1d0" text-anchor="middle" font-weight="normal">8 bits</text>
<text x="749.5" y="122" font-size="11" fill="#66675e" text-anchor="start" font-weight="normal">15</text>
<rect x="868.8" y="50" width="118.2" height="52" rx="5" fill="#b53b13"/>
<text x="929.375" y="74" font-size="13.5" fill="#ede5d5" text-anchor="middle" font-weight="bold">head y</text>
<text x="929.375" y="92" font-size="11.5" fill="#e9e1d0" text-anchor="middle" font-weight="normal">8 bits</text>
<text x="870.75" y="122" font-size="11" fill="#66675e" text-anchor="start" font-weight="normal">7</text>
<text x="986" y="122" font-size="11" fill="#66675e" text-anchor="end" font-weight="normal">0</text>
</svg>
